<?xml version="1.0" encoding="UTF-8"?>
<svg version="1.1" xmlns="http://www.w3.org/2000/svg" width="16" height="16">
<path d="M0 0 C3 1.625 3 1.625 6 4 C6.6875 7 6.6875 7 6 10 C3.5 12.375 3.5 12.375 1 14 C-2 12.375 -2 12.375 -5 10 C-5.6875 7 -5.6875 7 -5 4 C-2.5 1.625 -2.5 1.625 0 0 Z " fill="#ADA96A" transform="translate(8,1)"/>
<path d="M0 0 C0.99 0.33 1.98 0.66 3 1 C3.3125 3.75 3.3125 3.75 3 7 C0.5 9.375 0.5 9.375 -2 11 C-2.99 10.01 -3.98 9.02 -5 8 C-2 6 -2 6 0 6 C0 4.02 0 2.04 0 0 Z " fill="#8F0000" transform="translate(11,4)"/>
<path d="M0 0 C0.99 0.99 1.98 1.98 3 3 C-0 5 -0 5 -2 5 C-2 6.98 -2 8.96 -2 11 C-2.99 10.67 -3.98 10.34 -5 10 C-5.3125 7.25 -5.3125 7.25 -5 4 C-2.5 1.625 -2.5 1.625 0 0 Z " fill="#004A8F" transform="translate(8,1)"/>
</svg>
